HIERARCHY
ROOT root
{
	OFFSET 0.000000 0.000000 0.000000
	CHANNELS 6 Xposition Yposition Zposition Zrotation Yrotation Xrotation
	JOINT lhip
	{
		OFFSET 0.058581 -0.082280 -0.017664
		CHANNELS 3 Zrotation Yrotation Xrotation
		JOINT lknee
		{
			OFFSET 0.043451 -0.386469 0.008037
			CHANNELS 3 Zrotation Yrotation Xrotation
			JOINT lankle
			{
				OFFSET -0.014790 -0.426874 -0.037428
				CHANNELS 3 Zrotation Yrotation Xrotation
				JOINT ltoe
				{
					OFFSET 0.041054 -0.060286 0.122042
					CHANNELS 3 Zrotation Yrotation Xrotation
					End Site
					{
						OFFSET 0.000000 0.000000 0.000000
					}
				}
			}
		}
	}
	JOINT rhip
	{
		OFFSET -0.060310 -0.090513 -0.013543
		CHANNELS 3 Zrotation Yrotation Xrotation
		JOINT rknee
		{
			OFFSET -0.043257 -0.383688 -0.004843
			CHANNELS 3 Zrotation Yrotation Xrotation
			JOINT rankle
			{
				OFFSET 0.019056 -0.420046 -0.034562
				CHANNELS 3 Zrotation Yrotation Xrotation
				JOINT rtoe
				{
					OFFSET -0.034840 -0.062106 0.130323
					CHANNELS 3 Zrotation Yrotation Xrotation
					End Site
					{
						OFFSET 0.000000 0.000000 0.000000
					}
				}
			}
		}
	}
	JOINT lowerback
	{
		OFFSET 0.004439 0.124404 -0.038385
		CHANNELS 3 Zrotation Yrotation Xrotation
		JOINT upperback
		{
			OFFSET 0.004488 0.137956 0.026820
			CHANNELS 3 Zrotation Yrotation Xrotation
			JOINT chest
			{
				OFFSET -0.002265 0.056032 0.002855
				CHANNELS 3 Zrotation Yrotation Xrotation
				JOINT lowerneck
				{
					OFFSET -0.013390 0.211636 -0.033468
					CHANNELS 3 Zrotation Yrotation Xrotation
					JOINT upperneck
					{
						OFFSET 0.010113 0.088937 0.050410
						CHANNELS 3 Zrotation Yrotation Xrotation
						End Site
						{
							OFFSET 0.000000 0.000000 0.000000
						}
					}
				}
				JOINT lclavicle
				{
					OFFSET 0.071702 0.114000 -0.018898
					CHANNELS 3 Zrotation Yrotation Xrotation
					JOINT lshoulder
					{
						OFFSET 0.122921 0.045205 -0.019046
						CHANNELS 3 Zrotation Yrotation Xrotation
						JOINT lelbow
						{
							OFFSET 0.255332 -0.015649 -0.022946
							CHANNELS 3 Zrotation Yrotation Xrotation
							JOINT lwrist
							{
								OFFSET 0.265709 0.012698 -0.007375
								CHANNELS 3 Zrotation Yrotation Xrotation
								End Site
								{
									OFFSET 0.000000 0.000000 0.000000
								}
							}
						}
					}
				}
				JOINT rclavicle
				{
					OFFSET -0.082954 0.112472 -0.023707
					CHANNELS 3 Zrotation Yrotation Xrotation
					JOINT rshoulder
					{
						OFFSET -0.113228 0.046853 -0.008472
						CHANNELS 3 Zrotation Yrotation Xrotation
						JOINT relbow
						{
							OFFSET -0.260127 -0.014369 -0.031269
							CHANNELS 3 Zrotation Yrotation Xrotation
							JOINT rwrist
							{
								OFFSET -0.269108 0.006794 -0.006027
								CHANNELS 3 Zrotation Yrotation Xrotation
								End Site
								{
									OFFSET 0.000000 0.000000 0.000000
								}
							}
						}
					}
				}
			}
		}
	}
}
MOTION
Frames: 7
Frame Time: 0.033333
0.281328 0.446044 1.006841 -95.901648 -2.903599 84.015999 -7.966127 -6.041250 -1.022318 -2.671792 -1.365573 6.826879 5.395258 15.137892 -8.125624 0.000000 -0.000000 0.000000 -2.960297 3.985876 1.353480 4.242030 9.254821 55.828124 13.251559 -6.205603 12.547301 0.000000 -0.000000 0.000000 -2.475393 2.105965 11.912257 -1.272638 -2.842895 2.405786 -1.855856 -0.369612 3.389874 -3.985021 4.702404 -5.119934 -3.357321 8.154441 2.536452 -21.127537 1.553082 -4.226210 -49.349388 -0.821066 2.954691 5.780174 -13.631403 2.805439 -16.262076 -5.469263 8.794980 16.835692 -0.677622 -6.228909 42.681355 4.647611 17.999137 -2.560786 71.228959 16.440173 27.697774 12.359735 0.582695 
0.246998 0.441334 1.010731 -94.249193 -2.141201 82.963352 -7.932065 -4.017435 3.738175 -2.493487 -3.950195 4.311675 4.850297 14.355529 -9.423544 0.000000 -0.000000 0.000000 -2.100697 4.136428 -2.445587 1.782584 5.443490 59.363604 9.970023 -8.675680 5.002771 0.000000 -0.000000 0.000000 -1.194482 0.159523 12.812738 -1.188222 -2.566581 1.955354 -1.869750 -0.793645 3.408805 -3.268737 5.098946 -4.005482 -3.736304 7.855406 3.551465 -20.839466 -0.748580 -4.094176 -49.474002 -4.491213 4.646726 5.003664 -15.761883 5.095789 -14.927740 -6.050061 9.245061 16.283174 0.181940 -6.010490 42.368364 4.845649 17.590339 1.549619 71.940721 20.783274 25.438936 13.952279 -0.144218 
0.215597 0.437494 1.011875 -92.676420 -1.809175 83.442962 -7.995185 -3.272652 6.532337 -2.220393 -5.869703 1.996035 4.481166 13.910128 -9.949812 0.000000 -0.000000 0.000000 -2.403363 4.446132 -8.189236 -0.307014 1.864180 60.748532 8.348388 -10.983725 0.722084 0.000000 -0.000000 0.000000 -0.713636 -1.056585 12.179198 -0.909820 -2.127259 1.533778 -1.722544 -1.425358 3.448848 -2.536701 4.793955 -3.234907 -3.184677 7.485506 4.379619 -19.983578 -2.637336 -4.048921 -50.337252 -8.335968 7.103674 5.058085 -18.767923 6.983561 -12.108078 -6.499798 8.656342 15.626134 0.470635 -5.780129 42.243764 5.299500 17.468092 4.245865 72.196924 23.834866 23.132862 15.230210 -0.950445 
0.182996 0.434356 1.012938 -90.464801 -0.841363 82.971238 -7.185790 -2.512909 10.351486 -1.823601 -7.910859 -0.078037 4.064727 13.011682 -10.550365 0.000000 -0.000000 0.000000 -2.249032 4.805706 -11.432180 -1.979012 -1.906708 58.633995 7.241201 -12.170847 -2.831699 0.000000 -0.000000 0.000000 0.103848 -2.770802 13.166843 -0.551539 -2.233019 0.806180 -1.291001 -1.801395 3.168727 -2.060754 4.721515 -2.654650 -2.464839 6.933470 4.841211 -19.253118 -4.176240 -4.376696 -50.952725 -11.891040 8.822608 5.636211 -22.431640 6.967859 -12.235346 -7.256485 7.906471 14.606545 0.833949 -5.926037 42.011369 4.776624 17.741655 5.976720 73.109701 26.178550 23.195208 15.362617 -2.331209 
0.151153 0.432334 1.011018 -88.436064 -0.078641 82.931543 -6.198744 -1.378045 13.349279 -1.493883 -9.495520 -1.617244 3.171021 12.082265 -11.735975 0.000000 -0.000000 0.000000 -2.297131 4.913122 -14.408917 -3.211311 -4.809100 53.852950 7.851116 -13.203129 -7.798767 0.000000 -0.000000 0.000000 0.279301 -3.933017 13.281033 -0.005773 -2.575905 1.137805 -0.729557 -2.396913 3.103977 -1.221766 5.019412 -2.772948 -1.984477 5.787531 4.250657 -17.576011 -5.364030 -3.962942 -51.692533 -15.439064 10.158389 6.093242 -27.825493 7.238861 -10.780445 -8.589215 4.111308 13.836419 1.058840 -5.999295 41.708723 5.783101 17.477029 8.218965 73.859654 28.898282 19.350011 16.041884 -2.798118 
0.119300 0.431686 1.008216 -87.233093 0.628851 82.569978 -5.152957 -0.425095 16.665664 -1.199070 -10.715484 -3.246234 2.318754 11.954407 -12.956532 0.000000 -0.000000 0.000000 -1.977885 5.441715 -16.046996 -2.873804 -5.854745 46.501205 7.620812 -12.727972 -10.369469 0.000000 -0.000000 0.000000 0.263551 -4.876854 14.568513 0.344093 -2.663614 0.437472 -0.020466 -2.764450 3.124136 -0.672471 5.176695 -2.913845 -1.264741 4.998682 3.845180 -16.135552 -6.193517 -4.322011 -51.359455 -17.837095 11.260233 6.347261 -34.012459 6.406336 -10.570744 -9.327667 1.436959 12.977739 1.308439 -6.142675 41.660509 6.403975 17.471683 9.242636 74.648742 29.317168 19.104690 15.854879 -3.035328 
0.086535 0.431795 1.003536 -86.242220 1.144966 83.266562 -3.433427 2.566170 17.907993 -1.207551 -11.510885 -3.030404 2.406570 9.063239 -14.851999 0.000000 -0.000000 0.000000 -1.428770 4.394880 -17.721455 -3.355518 -5.384572 36.652357 7.602245 -11.318566 -11.325020 0.000000 -0.000000 0.000000 0.503056 -5.316521 13.955253 0.806744 -2.986824 0.810112 0.161495 -3.503439 3.129413 0.316750 6.136374 -2.702058 -1.551148 3.698407 2.481628 -15.385459 -6.244705 -4.141230 -49.323839 -20.302554 10.513769 4.567430 -40.414700 10.086694 -5.300394 -13.215680 -2.531968 12.593929 0.696381 -5.966962 41.841831 8.264672 18.000577 9.056419 75.184488 30.544060 17.163352 15.807927 -3.780658 
